<svg xmlns="http://www.w3.org/2000/svg" viewBox="0 0 320 64">
  <g>
    <polygon points="28.43,20.71 22.81,2.01 13.00,-2.43 5.95,4.64 7.47,13.70 2.23,16.84 2.89,25.69 -1.21,35.63 2.79,49.60 12.61,54.05 22.80,41.17" fill="#786D4F"/>
    <polygon points="28.19,21.74 22.95,5.30 14.86,1.26 9.14,6.47 12.00,13.65 5.90,16.60 7.66,24.62 2.70,34.35 6.08,47.10 13.56,49.91 22.18,39.94" fill="#B36E64"/>
    <polygon points="27.10,22.58 22.86,9.63 16.48,5.98 12.95,9.52 16.04,15.68 10.80,18.82 13.04,24.77 8.32,33.48 10.46,43.76 16.47,45.15 22.04,36.64" fill="#D7858E"/>
    <polygon points="23.86,13.13 19.19,9.88 16.76,12.58 19.24,17.50 24.62,17.66" fill="#3A3623"/>
    <polygon points="17.85,31.32 11.61,30.97 9.32,36.97 12.89,41.06 18.14,37.92" fill="#3A3623"/>
    <polygon points="16.28,34.22 12.61,34.47 11.89,37.56 14.23,39.19" fill="#FF371E"/>
    <polygon points="22.76,13.96 19.57,12.14 18.86,15.24 21.43,15.83" fill="#FF975C"/>
    <polygon points="8.61,20.49 2.75,22.40 6.56,25.45" fill="#3A3623"/>
    <polygon points="1.75,38.48 -2.64,41.82 2.27,44.04" fill="#3A3623"/>
    <polygon points="35.57,20.71 41.19,2.01 51.00,-2.43 58.05,4.64 56.53,13.70 61.77,16.84 61.11,25.69 65.21,35.63 61.21,49.60 51.39,54.05 41.20,41.17" fill="#786D4F"/>
    <polygon points="35.81,21.74 41.05,5.30 49.14,1.26 54.86,6.47 52.00,13.65 58.10,16.60 56.34,24.62 61.30,34.35 57.92,47.10 50.44,49.91 41.82,39.94" fill="#B36E64"/>
    <polygon points="36.90,22.58 41.14,9.63 47.52,5.98 51.05,9.52 47.96,15.68 53.20,18.82 50.96,24.77 55.68,33.48 53.54,43.76 47.53,45.15 41.96,36.64" fill="#D7858E"/>
    <polygon points="40.14,13.13 44.81,9.88 47.24,12.58 44.76,17.50 39.38,17.66" fill="#3A3623"/>
    <polygon points="46.15,31.32 52.39,30.97 54.68,36.97 51.11,41.06 45.86,37.92" fill="#3A3623"/>
    <polygon points="47.72,34.22 51.39,34.47 52.11,37.56 49.77,39.19" fill="#FF371E"/>
    <polygon points="41.24,13.96 44.43,12.14 45.14,15.24 42.57,15.83" fill="#FF975C"/>
    <polygon points="55.39,20.49 61.25,22.40 57.44,25.45" fill="#3A3623"/>
    <polygon points="62.25,38.48 66.64,41.82 61.73,44.04" fill="#3A3623"/>
    <polygon points="32.00,1.92 37.58,9.76 36.65,19.84 27.35,19.84 26.42,9.76" fill="#3A3623"/>
    <polygon points="32.00,5.28 35.72,10.88 34.79,17.60 29.21,17.60 28.28,10.88" fill="#444436"/>
    <polygon points="28.28,19.84 35.72,19.84 36.65,33.28 34.79,46.72 32.00,57.92 29.21,46.72 27.35,33.28" fill="#3A3623"/>
    <polygon points="29.21,22.08 34.79,22.08 34.79,31.04 29.21,31.04" fill="#52554C"/>
    <polygon points="29.21,34.40 34.79,34.40 33.86,42.24 30.14,42.24" fill="#444436"/>
    <polygon points="31.07,51.20 32.93,51.20 32.00,62.40 31.07,56.80" fill="#DF2626"/>
    <polygon points="29.21,8.64 31.07,8.64 31.07,14.24 29.21,14.24" fill="#FF975C"/>
    <polygon points="32.93,8.64 34.79,8.64 34.79,14.24 32.93,14.24" fill="#FF975C"/>
    <polygon points="26.00,7.00 22.00,3.00 25.00,10.00" fill="#3A3623"/>
    <polygon points="38.00,7.00 42.00,3.00 39.00,10.00" fill="#3A3623"/>
    <polygon points="32.00,58.00 36.00,50.00 32.00,53.00 28.00,50.00" fill="#DAE816"/>
  </g>
  <g>
    <polygon points="95.00,20.00 84.00,4.00 72.00,2.00 66.00,10.00 70.00,18.00 65.00,22.00 68.00,30.00 66.00,40.00 74.00,52.00 86.00,54.00 94.00,40.00" fill="#786D4F"/>
    <polygon points="95.00,21.00 85.00,7.00 75.00,5.00 70.00,11.00 75.00,17.00 69.00,21.00 73.00,28.00 70.00,38.00 77.00,49.00 86.00,50.00 93.00,39.00" fill="#B36E64"/>
    <polygon points="94.00,22.00 86.00,11.00 78.00,9.00 75.00,13.00 80.00,18.00 75.00,22.00 79.00,27.00 76.00,36.00 81.00,45.00 88.00,45.00 92.00,36.00" fill="#D7858E"/>
    <polygon points="88.00,14.00 82.00,12.00 80.00,15.00 84.00,19.00 90.00,18.00" fill="#3A3623"/>
    <polygon points="86.00,32.00 79.00,33.00 78.00,39.00 83.00,42.00 88.00,38.00" fill="#3A3623"/>
    <polygon points="85.00,35.00 81.00,36.00 81.00,39.00 84.00,40.00" fill="#FF371E"/>
    <polygon points="87.00,15.00 83.00,14.00 83.00,17.00 86.00,17.00" fill="#FF975C"/>
    <polygon points="73.00,24.00 67.00,27.00 72.00,29.00" fill="#3A3623"/>
    <polygon points="70.00,42.00 66.00,46.00 72.00,47.00" fill="#3A3623"/>
    <polygon points="97.00,20.00 108.00,4.00 120.00,2.00 126.00,10.00 122.00,18.00 127.00,22.00 124.00,30.00 126.00,40.00 118.00,52.00 106.00,54.00 98.00,40.00" fill="#786D4F"/>
    <polygon points="97.00,21.00 107.00,7.00 117.00,5.00 122.00,11.00 117.00,17.00 123.00,21.00 119.00,28.00 122.00,38.00 115.00,49.00 106.00,50.00 99.00,39.00" fill="#B36E64"/>
    <polygon points="98.00,22.00 106.00,11.00 114.00,9.00 117.00,13.00 112.00,18.00 117.00,22.00 113.00,27.00 116.00,36.00 111.00,45.00 104.00,45.00 100.00,36.00" fill="#D7858E"/>
    <polygon points="104.00,14.00 110.00,12.00 112.00,15.00 108.00,19.00 102.00,18.00" fill="#3A3623"/>
    <polygon points="106.00,32.00 113.00,33.00 114.00,39.00 109.00,42.00 104.00,38.00" fill="#3A3623"/>
    <polygon points="107.00,35.00 111.00,36.00 111.00,39.00 108.00,40.00" fill="#FF371E"/>
    <polygon points="105.00,15.00 109.00,14.00 109.00,17.00 106.00,17.00" fill="#FF975C"/>
    <polygon points="119.00,24.00 125.00,27.00 120.00,29.00" fill="#3A3623"/>
    <polygon points="122.00,42.00 126.00,46.00 120.00,47.00" fill="#3A3623"/>
    <polygon points="96.00,6.00 102.00,13.00 101.00,22.00 91.00,22.00 90.00,13.00" fill="#3A3623"/>
    <polygon points="96.00,9.00 100.00,14.00 99.00,20.00 93.00,20.00 92.00,14.00" fill="#444436"/>
    <polygon points="92.00,22.00 100.00,22.00 101.00,34.00 99.00,46.00 96.00,56.00 93.00,46.00 91.00,34.00" fill="#3A3623"/>
    <polygon points="93.00,24.00 99.00,24.00 99.00,32.00 93.00,32.00" fill="#52554C"/>
    <polygon points="93.00,35.00 99.00,35.00 98.00,42.00 94.00,42.00" fill="#444436"/>
    <polygon points="95.00,50.00 97.00,50.00 96.00,60.00 95.00,55.00" fill="#DF2626"/>
    <polygon points="93.00,12.00 95.00,12.00 95.00,17.00 93.00,17.00" fill="#FF975C"/>
    <polygon points="97.00,12.00 99.00,12.00 99.00,17.00 97.00,17.00" fill="#FF975C"/>
    <polygon points="90.00,4.00 86.00,0.00 89.00,7.00" fill="#3A3623"/>
    <polygon points="102.00,4.00 106.00,0.00 103.00,7.00" fill="#3A3623"/>
  </g>
  <g>
    <polygon points="159.00,20.00 148.00,4.00 136.00,2.00 130.00,10.00 134.00,18.00 129.00,22.00 132.00,30.00 130.00,40.00 138.00,52.00 150.00,54.00 158.00,40.00" fill="#786D4F"/>
    <polygon points="159.00,21.00 149.00,7.00 139.00,5.00 134.00,11.00 139.00,17.00 133.00,21.00 137.00,28.00 134.00,38.00 141.00,49.00 150.00,50.00 157.00,39.00" fill="#B36E64"/>
    <polygon points="158.00,22.00 150.00,11.00 142.00,9.00 139.00,13.00 144.00,18.00 139.00,22.00 143.00,27.00 140.00,36.00 145.00,45.00 152.00,45.00 156.00,36.00" fill="#D7858E"/>
    <polygon points="152.00,14.00 146.00,12.00 144.00,15.00 148.00,19.00 154.00,18.00" fill="#3A3623"/>
    <polygon points="150.00,32.00 143.00,33.00 142.00,39.00 147.00,42.00 152.00,38.00" fill="#3A3623"/>
    <polygon points="149.00,35.00 145.00,36.00 145.00,39.00 148.00,40.00" fill="#FF371E"/>
    <polygon points="151.00,15.00 147.00,14.00 147.00,17.00 150.00,17.00" fill="#FF975C"/>
    <polygon points="137.00,24.00 131.00,27.00 136.00,29.00" fill="#3A3623"/>
    <polygon points="134.00,42.00 130.00,46.00 136.00,47.00" fill="#3A3623"/>
    <polygon points="161.00,20.00 172.00,4.00 184.00,2.00 190.00,10.00 186.00,18.00 191.00,22.00 188.00,30.00 190.00,40.00 182.00,52.00 170.00,54.00 162.00,40.00" fill="#786D4F"/>
    <polygon points="161.00,21.00 171.00,7.00 181.00,5.00 186.00,11.00 181.00,17.00 187.00,21.00 183.00,28.00 186.00,38.00 179.00,49.00 170.00,50.00 163.00,39.00" fill="#B36E64"/>
    <polygon points="162.00,22.00 170.00,11.00 178.00,9.00 181.00,13.00 176.00,18.00 181.00,22.00 177.00,27.00 180.00,36.00 175.00,45.00 168.00,45.00 164.00,36.00" fill="#D7858E"/>
    <polygon points="168.00,14.00 174.00,12.00 176.00,15.00 172.00,19.00 166.00,18.00" fill="#3A3623"/>
    <polygon points="170.00,32.00 177.00,33.00 178.00,39.00 173.00,42.00 168.00,38.00" fill="#3A3623"/>
    <polygon points="171.00,35.00 175.00,36.00 175.00,39.00 172.00,40.00" fill="#FF371E"/>
    <polygon points="169.00,15.00 173.00,14.00 173.00,17.00 170.00,17.00" fill="#FF975C"/>
    <polygon points="183.00,24.00 189.00,27.00 184.00,29.00" fill="#3A3623"/>
    <polygon points="186.00,42.00 190.00,46.00 184.00,47.00" fill="#3A3623"/>
    <polygon points="160.00,6.00 166.00,13.00 165.00,22.00 155.00,22.00 154.00,13.00" fill="#3A3623"/>
    <polygon points="160.00,9.00 164.00,14.00 163.00,20.00 157.00,20.00 156.00,14.00" fill="#444436"/>
    <polygon points="156.00,22.00 164.00,22.00 165.00,34.00 163.00,46.00 160.00,56.00 157.00,46.00 155.00,34.00" fill="#3A3623"/>
    <polygon points="157.00,24.00 163.00,24.00 163.00,32.00 157.00,32.00" fill="#52554C"/>
    <polygon points="157.00,35.00 163.00,35.00 162.00,42.00 158.00,42.00" fill="#444436"/>
    <polygon points="159.00,50.00 161.00,50.00 160.00,60.00 159.00,55.00" fill="#DF2626"/>
    <polygon points="157.00,12.00 159.00,12.00 159.00,17.00 157.00,17.00" fill="#FF975C"/>
    <polygon points="161.00,12.00 163.00,12.00 163.00,17.00 161.00,17.00" fill="#FF975C"/>
    <polygon points="154.00,4.00 150.00,0.00 153.00,7.00" fill="#3A3623"/>
    <polygon points="166.00,4.00 170.00,0.00 167.00,7.00" fill="#3A3623"/>
  </g>
  <g>
    <polygon points="222.26,19.92 209.39,5.38 197.24,4.86 192.26,13.53 197.20,20.98 192.73,25.56 196.68,33.14 195.91,43.31 205.32,54.24 217.47,54.77 223.71,39.90" fill="#786D4F"/>
    <polygon points="222.38,20.92 210.75,8.24 200.58,7.47 196.35,14.04 202.04,19.38 196.58,24.08 201.40,30.54 199.64,40.84 207.93,50.90 216.98,50.80 222.59,39.02" fill="#B36E64"/>
    <polygon points="221.51,22.03 212.23,12.09 204.05,11.08 201.56,15.41 207.13,19.77 202.65,24.35 207.23,28.82 205.35,38.12 211.41,46.44 218.36,45.59 221.23,36.17" fill="#D7858E"/>
    <polygon points="214.58,14.82 208.38,13.57 206.76,16.79 211.22,20.27 217.05,18.55" fill="#3A3623"/>
    <polygon points="214.79,32.93 207.96,34.78 207.70,40.85 213.03,43.22 217.51,38.64" fill="#3A3623"/>
    <polygon points="214.16,36.03 210.32,37.51 210.68,40.49 213.78,41.11" fill="#FF371E"/>
    <polygon points="213.71,15.94 209.62,15.43 209.99,18.41 212.96,18.04" fill="#FF975C"/>
    <polygon points="200.91,26.57 195.32,30.28 200.53,31.66" fill="#3A3623"/>
    <polygon points="200.13,44.81 196.65,49.26 202.72,49.52" fill="#3A3623"/>
    <polygon points="225.74,19.92 238.61,5.38 250.76,4.86 255.74,13.53 250.80,20.98 255.27,25.56 251.32,33.14 252.09,43.31 242.68,54.24 230.53,54.77 224.29,39.90" fill="#786D4F"/>
    <polygon points="225.62,20.92 237.25,8.24 247.42,7.47 251.65,14.04 245.96,19.38 251.42,24.08 246.60,30.54 248.36,40.84 240.07,50.90 231.02,50.80 225.41,39.02" fill="#B36E64"/>
    <polygon points="226.49,22.03 235.77,12.09 243.95,11.08 246.44,15.41 240.87,19.77 245.35,24.35 240.77,28.82 242.65,38.12 236.59,46.44 229.64,45.59 226.77,36.17" fill="#D7858E"/>
    <polygon points="233.42,14.82 239.62,13.57 241.24,16.79 236.78,20.27 230.95,18.55" fill="#3A3623"/>
    <polygon points="233.21,32.93 240.04,34.78 240.30,40.85 234.97,43.22 230.49,38.64" fill="#3A3623"/>
    <polygon points="233.84,36.03 237.68,37.51 237.32,40.49 234.22,41.11" fill="#FF371E"/>
    <polygon points="234.29,15.94 238.38,15.43 238.01,18.41 235.04,18.04" fill="#FF975C"/>
    <polygon points="247.09,26.57 252.68,30.28 247.47,31.66" fill="#3A3623"/>
    <polygon points="247.87,44.81 251.35,49.26 245.28,49.52" fill="#3A3623"/>
    <polygon points="224.00,5.00 230.00,12.00 229.00,21.00 219.00,21.00 218.00,12.00" fill="#3A3623"/>
    <polygon points="224.00,8.00 228.00,13.00 227.00,19.00 221.00,19.00 220.00,13.00" fill="#444436"/>
    <polygon points="220.00,21.00 228.00,21.00 229.00,33.00 227.00,45.00 224.00,55.00 221.00,45.00 219.00,33.00" fill="#3A3623"/>
    <polygon points="221.00,23.00 227.00,23.00 227.00,31.00 221.00,31.00" fill="#52554C"/>
    <polygon points="221.00,34.00 227.00,34.00 226.00,41.00 222.00,41.00" fill="#444436"/>
    <polygon points="223.00,49.00 225.00,49.00 224.00,59.00 223.00,54.00" fill="#DF2626"/>
    <polygon points="221.00,11.00 223.00,11.00 223.00,16.00 221.00,16.00" fill="#FF975C"/>
    <polygon points="225.00,11.00 227.00,11.00 227.00,16.00 225.00,16.00" fill="#FF975C"/>
    <polygon points="218.00,4.00 214.00,0.00 217.00,7.00" fill="#3A3623"/>
    <polygon points="230.00,4.00 234.00,0.00 231.00,7.00" fill="#3A3623"/>
  </g>
  <g>
    <polygon points="284.43,20.71 278.81,2.01 269.00,-2.43 261.95,4.64 263.47,13.70 258.23,16.84 258.89,25.69 254.79,35.63 258.79,49.60 268.61,54.05 278.80,41.17" fill="#786D4F"/>
    <polygon points="284.19,21.74 278.95,5.30 270.86,1.26 265.14,6.47 268.00,13.65 261.90,16.60 263.66,24.62 258.70,34.35 262.08,47.10 269.56,49.91 278.18,39.94" fill="#B36E64"/>
    <polygon points="283.10,22.58 278.86,9.63 272.48,5.98 268.95,9.52 272.04,15.68 266.80,18.82 269.04,24.77 264.32,33.48 266.46,43.76 272.47,45.15 278.04,36.64" fill="#D7858E"/>
    <polygon points="279.86,13.13 275.19,9.88 272.76,12.58 275.24,17.50 280.62,17.66" fill="#3A3623"/>
    <polygon points="273.85,31.32 267.61,30.97 265.32,36.97 268.89,41.06 274.14,37.92" fill="#3A3623"/>
    <polygon points="272.28,34.22 268.61,34.47 267.89,37.56 270.23,39.19" fill="#FF371E"/>
    <polygon points="278.76,13.96 275.57,12.14 274.86,15.24 277.43,15.83" fill="#FF975C"/>
    <polygon points="264.61,20.49 258.75,22.40 262.56,25.45" fill="#3A3623"/>
    <polygon points="257.75,38.48 253.36,41.82 258.27,44.04" fill="#3A3623"/>
    <polygon points="291.57,20.71 297.19,2.01 307.00,-2.43 314.05,4.64 312.53,13.70 317.77,16.84 317.11,25.69 321.21,35.63 317.21,49.60 307.39,54.05 297.20,41.17" fill="#786D4F"/>
    <polygon points="291.81,21.74 297.05,5.30 305.14,1.26 310.86,6.47 308.00,13.65 314.10,16.60 312.34,24.62 317.30,34.35 313.92,47.10 306.44,49.91 297.82,39.94" fill="#B36E64"/>
    <polygon points="292.90,22.58 297.14,9.63 303.52,5.98 307.05,9.52 303.96,15.68 309.20,18.82 306.96,24.77 311.68,33.48 309.54,43.76 303.53,45.15 297.96,36.64" fill="#D7858E"/>
    <polygon points="296.14,13.13 300.81,9.88 303.24,12.58 300.76,17.50 295.38,17.66" fill="#3A3623"/>
    <polygon points="302.15,31.32 308.39,30.97 310.68,36.97 307.11,41.06 301.86,37.92" fill="#3A3623"/>
    <polygon points="303.72,34.22 307.39,34.47 308.11,37.56 305.77,39.19" fill="#FF371E"/>
    <polygon points="297.24,13.96 300.43,12.14 301.14,15.24 298.57,15.83" fill="#FF975C"/>
    <polygon points="311.39,20.49 317.25,22.40 313.44,25.45" fill="#3A3623"/>
    <polygon points="318.25,38.48 322.64,41.82 317.73,44.04" fill="#3A3623"/>
    <polygon points="288.00,1.92 293.58,9.76 292.65,19.84 283.35,19.84 282.42,9.76" fill="#3A3623"/>
    <polygon points="288.00,5.28 291.72,10.88 290.79,17.60 285.21,17.60 284.28,10.88" fill="#444436"/>
    <polygon points="284.28,19.84 291.72,19.84 292.65,33.28 290.79,46.72 288.00,57.92 285.21,46.72 283.35,33.28" fill="#3A3623"/>
    <polygon points="285.21,22.08 290.79,22.08 290.79,31.04 285.21,31.04" fill="#52554C"/>
    <polygon points="285.21,34.40 290.79,34.40 289.86,42.24 286.14,42.24" fill="#444436"/>
    <polygon points="287.07,51.20 288.93,51.20 288.00,62.40 287.07,56.80" fill="#DF2626"/>
    <polygon points="285.21,8.64 287.07,8.64 287.07,14.24 285.21,14.24" fill="#FF975C"/>
    <polygon points="288.93,8.64 290.79,8.64 290.79,14.24 288.93,14.24" fill="#FF975C"/>
    <polygon points="282.00,7.00 278.00,3.00 281.00,10.00" fill="#3A3623"/>
    <polygon points="294.00,7.00 298.00,3.00 295.00,10.00" fill="#3A3623"/>
    <polygon points="288.00,58.00 292.00,50.00 288.00,53.00 284.00,50.00" fill="#DAE816"/>
  </g>
</svg>
