<svg xmlns="http://www.w3.org/2000/svg" viewBox="0 0 512 64">
  <g transform="translate(0,0)">
    <ellipse cx="32" cy="32" rx="5.5" ry="5.5" fill="none" stroke="#f4fcff" stroke-width="2.6"/>
    <ellipse cx="32" cy="32" rx="7.2" ry="7.2" fill="none" stroke="#c8f0ff" stroke-width="1.2"/>
    <polyline points="32,28.8 32,23.5" fill="none" stroke="#f4fcff" stroke-width="1.3"/>
    <polyline points="34.3,29.7 38,26" fill="none" stroke="#c8f0ff" stroke-width="1.3"/>
    <polyline points="35.2,32 40.5,32" fill="none" stroke="#f4fcff" stroke-width="1.3"/>
    <polyline points="34.3,34.3 38,38" fill="none" stroke="#c8f0ff" stroke-width="1.3"/>
    <polyline points="32,35.2 32,40.5" fill="none" stroke="#f4fcff" stroke-width="1.3"/>
    <polyline points="29.7,34.3 26,38" fill="none" stroke="#c8f0ff" stroke-width="1.3"/>
    <polyline points="28.8,32 23.5,32" fill="none" stroke="#f4fcff" stroke-width="1.3"/>
    <polyline points="29.7,29.7 26,26" fill="none" stroke="#c8f0ff" stroke-width="1.3"/>
    <ellipse cx="33.7" cy="26.8" rx="1.4" ry="1.2" fill="#f4fcff"/>
    <ellipse cx="37.2" cy="33.7" rx="1.4" ry="1.2" fill="#f4fcff"/>
    <ellipse cx="30.3" cy="37.2" rx="1.4" ry="1.2" fill="#f4fcff"/>
    <ellipse cx="26.8" cy="30.3" rx="1.4" ry="1.2" fill="#f4fcff"/>
    <ellipse cx="32" cy="32" rx="2.2" ry="2.2" fill="none" stroke="#f4fcff" stroke-width="1.5"/>
    <ellipse cx="32" cy="32" rx="1.4" ry="1.4" fill="#ffffff"/>
  </g>
  <g transform="translate(64,0)">
    <ellipse cx="32" cy="32" rx="7.4" ry="7.4" fill="none" stroke="#8ad8ff" stroke-width="2.3"/>
    <ellipse cx="32" cy="32" rx="9.5" ry="9.5" fill="none" stroke="#d8f4ff" stroke-width="2.8"/>
    <ellipse cx="32" cy="32" rx="11.3" ry="11.3" fill="none" stroke="#8ad8ff" stroke-width="1.2"/>
    <polyline points="32.9,24.9 33.5,19.6" fill="none" stroke="#d8f4ff" stroke-width="1.3"/>
    <polyline points="36.9,26.7 40.5,22.9" fill="none" stroke="#8ad8ff" stroke-width="1.3"/>
    <polyline points="39.1,30.6 44.3,29.6" fill="none" stroke="#d8f4ff" stroke-width="1.3"/>
    <polyline points="38.5,35 43.3,37.3" fill="none" stroke="#8ad8ff" stroke-width="1.3"/>
    <polyline points="35.5,38.3 38.1,42.9" fill="none" stroke="#d8f4ff" stroke-width="1.3"/>
    <polyline points="31.1,39.1 30.5,44.4" fill="none" stroke="#8ad8ff" stroke-width="1.3"/>
    <polyline points="27.1,37.3 23.5,41.1" fill="none" stroke="#d8f4ff" stroke-width="1.3"/>
    <polyline points="24.9,33.4 19.7,34.4" fill="none" stroke="#8ad8ff" stroke-width="1.3"/>
    <polyline points="25.5,29 20.7,26.7" fill="none" stroke="#d8f4ff" stroke-width="1.3"/>
    <polyline points="28.5,25.7 25.9,21.1" fill="none" stroke="#8ad8ff" stroke-width="1.3"/>
    <ellipse cx="36.6" cy="23.7" rx="1.5" ry="1.3" fill="#d8f4ff"/>
    <ellipse cx="41.5" cy="31.8" rx="1.5" ry="1.3" fill="#d8f4ff"/>
    <ellipse cx="36.9" cy="40.1" rx="1.5" ry="1.3" fill="#d8f4ff"/>
    <ellipse cx="27.4" cy="40.3" rx="1.5" ry="1.3" fill="#d8f4ff"/>
    <ellipse cx="22.5" cy="32.2" rx="1.5" ry="1.3" fill="#d8f4ff"/>
    <ellipse cx="27.1" cy="23.9" rx="1.5" ry="1.3" fill="#d8f4ff"/>
    <ellipse cx="32" cy="32" rx="1.8" ry="1.8" fill="none" stroke="#d8f4ff" stroke-width="1.5"/>
  </g>
  <g transform="translate(128,0)">
    <ellipse cx="32" cy="32" rx="5.1" ry="5.1" fill="none" stroke="#4a9cff" stroke-width="1.8"/>
    <ellipse cx="32" cy="32" rx="10.9" ry="10.9" fill="none" stroke="#6ac4ff" stroke-width="2.1"/>
    <ellipse cx="32" cy="32" rx="14" ry="14" fill="none" stroke="#b0e4ff" stroke-width="2.6"/>
    <ellipse cx="32" cy="32" rx="15.7" ry="15.7" fill="none" stroke="#6ac4ff" stroke-width="1.2"/>
    <polyline points="34.8,20.6 36.1,15.5" fill="none" stroke="#b0e4ff" stroke-width="1.3"/>
    <polyline points="40.1,23.6 43.8,19.8" fill="none" stroke="#6ac4ff" stroke-width="1.3"/>
    <polyline points="43.2,28.8 48.3,27.3" fill="none" stroke="#b0e4ff" stroke-width="1.3"/>
    <polyline points="43.4,34.8 48.5,36.1" fill="none" stroke="#6ac4ff" stroke-width="1.3"/>
    <polyline points="40.4,40.1 44.2,43.8" fill="none" stroke="#b0e4ff" stroke-width="1.3"/>
    <polyline points="35.2,43.2 36.7,48.3" fill="none" stroke="#6ac4ff" stroke-width="1.3"/>
    <polyline points="29.2,43.4 27.9,48.5" fill="none" stroke="#b0e4ff" stroke-width="1.3"/>
    <polyline points="23.9,40.4 20.2,44.2" fill="none" stroke="#6ac4ff" stroke-width="1.3"/>
    <polyline points="20.8,35.2 15.7,36.7" fill="none" stroke="#b0e4ff" stroke-width="1.3"/>
    <polyline points="20.6,29.2 15.5,27.9" fill="none" stroke="#6ac4ff" stroke-width="1.3"/>
    <polyline points="23.6,23.9 19.8,20.2" fill="none" stroke="#b0e4ff" stroke-width="1.3"/>
    <polyline points="28.8,20.8 27.3,15.7" fill="none" stroke="#6ac4ff" stroke-width="1.3"/>
    <ellipse cx="41" cy="21.3" rx="1.4" ry="1.2" fill="#b0e4ff"/>
    <ellipse cx="45.9" cy="30.8" rx="1.4" ry="1.2" fill="#b0e4ff"/>
    <ellipse cx="42.7" cy="41" rx="1.4" ry="1.2" fill="#b0e4ff"/>
    <ellipse cx="33.2" cy="45.9" rx="1.4" ry="1.2" fill="#b0e4ff"/>
    <ellipse cx="23" cy="42.7" rx="1.4" ry="1.2" fill="#b0e4ff"/>
    <ellipse cx="18.1" cy="33.2" rx="1.4" ry="1.2" fill="#b0e4ff"/>
    <ellipse cx="21.3" cy="23" rx="1.4" ry="1.2" fill="#b0e4ff"/>
    <ellipse cx="30.8" cy="18.1" rx="1.4" ry="1.2" fill="#b0e4ff"/>
    <ellipse cx="32" cy="32" rx="1.3" ry="1.3" fill="none" stroke="#b0e4ff" stroke-width="1.5"/>
  </g>
  <g transform="translate(192,0)">
    <ellipse cx="32" cy="32" rx="8.7" ry="8.7" fill="none" stroke="#2a80e0" stroke-width="1.6"/>
    <ellipse cx="32" cy="32" rx="14.4" ry="14.4" fill="none" stroke="#4aa8ff" stroke-width="1.9"/>
    <ellipse cx="32" cy="32" rx="18.5" ry="18.5" fill="none" stroke="#8ad0ff" stroke-width="2.4"/>
    <ellipse cx="32" cy="32" rx="20.1" ry="20.1" fill="none" stroke="#4aa8ff" stroke-width="1.2"/>
    <polyline points="37.8,16.9 39.7,11.9" fill="none" stroke="#8ad0ff" stroke-width="1.3"/>
    <polyline points="44.6,21.8 48.7,18.5" fill="none" stroke="#4aa8ff" stroke-width="1.3"/>
    <polyline points="48,29.5 53.2,28.6" fill="none" stroke="#8ad0ff" stroke-width="1.3"/>
    <polyline points="47.1,37.8 52.1,39.7" fill="none" stroke="#4aa8ff" stroke-width="1.3"/>
    <polyline points="42.2,44.6 45.5,48.7" fill="none" stroke="#8ad0ff" stroke-width="1.3"/>
    <polyline points="34.5,48 35.4,53.2" fill="none" stroke="#4aa8ff" stroke-width="1.3"/>
    <polyline points="26.2,47.1 24.3,52.1" fill="none" stroke="#8ad0ff" stroke-width="1.3"/>
    <polyline points="19.4,42.2 15.3,45.5" fill="none" stroke="#4aa8ff" stroke-width="1.3"/>
    <polyline points="16,34.5 10.8,35.4" fill="none" stroke="#8ad0ff" stroke-width="1.3"/>
    <polyline points="16.9,26.2 11.9,24.3" fill="none" stroke="#4aa8ff" stroke-width="1.3"/>
    <polyline points="21.8,19.4 18.5,15.3" fill="none" stroke="#8ad0ff" stroke-width="1.3"/>
    <polyline points="29.5,16 28.6,10.8" fill="none" stroke="#4aa8ff" stroke-width="1.3"/>
    <ellipse cx="46.4" cy="20.4" rx="1.2" ry="1" fill="#4aa8ff"/>
    <ellipse cx="50.4" cy="33.9" rx="1.2" ry="1" fill="#4aa8ff"/>
    <ellipse cx="43.6" cy="46.4" rx="1.2" ry="1" fill="#4aa8ff"/>
    <ellipse cx="30.1" cy="50.4" rx="1.2" ry="1" fill="#4aa8ff"/>
    <ellipse cx="17.6" cy="43.6" rx="1.2" ry="1" fill="#4aa8ff"/>
    <ellipse cx="13.6" cy="30.1" rx="1.2" ry="1" fill="#4aa8ff"/>
    <ellipse cx="20.4" cy="17.6" rx="1.2" ry="1" fill="#4aa8ff"/>
    <ellipse cx="33.9" cy="13.6" rx="1.2" ry="1" fill="#4aa8ff"/>
  </g>
  <g transform="translate(256,0)">
    <ellipse cx="32" cy="32" rx="12.9" ry="12.9" fill="none" stroke="#1a58a8" stroke-width="1.4"/>
    <ellipse cx="32" cy="32" rx="17.6" ry="17.6" fill="none" stroke="#2a78d0" stroke-width="1.8"/>
    <ellipse cx="32" cy="32" rx="22.5" ry="22.5" fill="none" stroke="#5aa8e8" stroke-width="2.2"/>
    <ellipse cx="32" cy="32" rx="23.9" ry="23.9" fill="none" stroke="#2a78d0" stroke-width="1.2"/>
    <polyline points="41.5,14.2 44,9.5" fill="none" stroke="#5aa8e8" stroke-width="1.1"/>
    <polyline points="50.2,23.1 54.9,20.8" fill="none" stroke="#2a78d0" stroke-width="1.1"/>
    <polyline points="51.9,35.5 57.1,36.4" fill="none" stroke="#5aa8e8" stroke-width="1.1"/>
    <polyline points="46,46.5 49.7,50.3" fill="none" stroke="#2a78d0" stroke-width="1.1"/>
    <polyline points="34.8,52 35.5,57.3" fill="none" stroke="#5aa8e8" stroke-width="1.1"/>
    <polyline points="22.5,49.8 20,54.5" fill="none" stroke="#2a78d0" stroke-width="1.1"/>
    <polyline points="13.8,40.9 9.1,43.2" fill="none" stroke="#5aa8e8" stroke-width="1.1"/>
    <polyline points="12.1,28.5 6.9,27.6" fill="none" stroke="#2a78d0" stroke-width="1.1"/>
    <polyline points="18,17.5 14.3,13.7" fill="none" stroke="#5aa8e8" stroke-width="1.1"/>
    <polyline points="29.2,12 28.5,6.7" fill="none" stroke="#2a78d0" stroke-width="1.1"/>
    <ellipse cx="51.9" cy="21.4" rx="1" ry="0.8" fill="#2a78d0"/>
    <ellipse cx="51.1" cy="43.9" rx="1" ry="0.8" fill="#2a78d0"/>
    <ellipse cx="31.2" cy="54.5" rx="1" ry="0.8" fill="#2a78d0"/>
    <ellipse cx="12.1" cy="42.6" rx="1" ry="0.8" fill="#2a78d0"/>
    <ellipse cx="12.9" cy="20.1" rx="1" ry="0.8" fill="#2a78d0"/>
    <ellipse cx="32.8" cy="9.5" rx="1" ry="0.8" fill="#2a78d0"/>
  </g>
  <g transform="translate(320,0)">
    <ellipse cx="32" cy="32" rx="17" ry="17" fill="none" stroke="#154878" stroke-width="1.2"/>
    <ellipse cx="32" cy="32" rx="20.3" ry="20.3" fill="none" stroke="#1a68a8" stroke-width="1.4"/>
    <ellipse cx="32" cy="32" rx="26" ry="26" fill="none" stroke="#3a88c8" stroke-width="1.8"/>
    <ellipse cx="32" cy="32" rx="27.2" ry="27.2" fill="none" stroke="#1a68a8" stroke-width="1.2"/>
    <polyline points="45.6,12.6 48.6,8.2" fill="none" stroke="#3a88c8" stroke-width="1.1"/>
    <polyline points="55.3,27.9 60.6,27" fill="none" stroke="#1a68a8" stroke-width="1.1"/>
    <polyline points="51.4,45.6 55.8,48.6" fill="none" stroke="#3a88c8" stroke-width="1.1"/>
    <polyline points="36.1,55.3 37,60.6" fill="none" stroke="#1a68a8" stroke-width="1.1"/>
    <polyline points="18.4,51.4 15.4,55.8" fill="none" stroke="#3a88c8" stroke-width="1.1"/>
    <polyline points="8.7,36.1 3.4,37" fill="none" stroke="#1a68a8" stroke-width="1.1"/>
    <polyline points="12.6,18.4 8.2,15.4" fill="none" stroke="#3a88c8" stroke-width="1.1"/>
    <polyline points="27.9,8.7 27,3.4" fill="none" stroke="#1a68a8" stroke-width="1.1"/>
    <ellipse cx="56.9" cy="24.4" rx="0.8" ry="0.7" fill="#1a68a8"/>
    <ellipse cx="39.6" cy="56.9" rx="0.8" ry="0.7" fill="#1a68a8"/>
    <ellipse cx="7.1" cy="39.6" rx="0.8" ry="0.7" fill="#1a68a8"/>
    <ellipse cx="24.4" cy="7.1" rx="0.8" ry="0.7" fill="#1a68a8"/>
  </g>
  <g transform="translate(384,0)">
    <ellipse cx="32" cy="32" rx="29" ry="29" fill="none" stroke="#2a70a8" stroke-width="1.5"/>
    <ellipse cx="32" cy="32" rx="23.2" ry="23.2" fill="none" stroke="#143860" stroke-width="1.1"/>
    <polyline points="36.3,1.7 40.1,2.5 43.8,3.8 47.3,5.5 50.6,7.7 53.5,10.2 56.1,13.2" fill="none" stroke="#1a5080" stroke-width="1.2"/>
    <polyline points="62.3,36.3 61.4,40.6 59.8,44.8 57.7,48.7 55,52.2 51.8,55.3 48.2,58" fill="none" stroke="#1a5080" stroke-width="1.2"/>
    <polyline points="27.7,62.3 23.6,61.4 19.6,60 15.8,58 12.3,55.4 9.3,52.5 6.6,49.1" fill="none" stroke="#1a5080" stroke-width="1.2"/>
    <polyline points="1.7,27.7 2.6,23.4 4.2,19.2 6.3,15.3 9,11.8 12.2,8.7 15.8,6" fill="none" stroke="#1a5080" stroke-width="1.2"/>
    <ellipse cx="52.5" cy="11.5" rx="0.8" ry="0.8" fill="#1a5080"/>
    <ellipse cx="52.5" cy="52.5" rx="0.8" ry="0.8" fill="#1a5080"/>
    <ellipse cx="11.5" cy="52.5" rx="0.8" ry="0.8" fill="#1a5080"/>
    <ellipse cx="11.5" cy="11.5" rx="0.8" ry="0.8" fill="#1a5080"/>
  </g>
  <g transform="translate(448,0)">
    <ellipse cx="32" cy="32" rx="30.5" ry="30.5" fill="none" stroke="#102848" stroke-width="1"/>
    <polyline points="35.2,1.7 38.5,2.2 41.8,3.1 45,4.4 48,6 50.8,8" fill="none" stroke="#1e5888" stroke-width="1.1"/>
    <polyline points="61.3,23.6 62.1,27.1 62.5,30.7 62.4,34.3 61.9,37.9 61,41.4" fill="none" stroke="#1e5888" stroke-width="1.1"/>
    <polyline points="48.2,57.9 45.2,59.5 42,60.8 38.8,61.7 35.4,62.3 32,62.5" fill="none" stroke="#1e5888" stroke-width="1.1"/>
    <polyline points="13.2,56 10.7,53.8 8.4,51.3 6.4,48.5 4.7,45.6 3.3,42.4" fill="none" stroke="#1e5888" stroke-width="1.1"/>
    <polyline points="3.3,21.6 4.8,18.2 6.6,15.1 8.8,12.2 11.3,9.6 14.1,7.3" fill="none" stroke="#1e5888" stroke-width="1.1"/>
    <polyline points="24.6,2.4 27.5,1.8 30.5,1.5 33.5,1.5 36.5,1.8 39.4,2.4" fill="none" stroke="#1e5888" stroke-width="1.1"/>
    <ellipse cx="50.4" cy="10" rx="0.8" ry="0.7" fill="#102848"/>
    <ellipse cx="54" cy="50.4" rx="0.8" ry="0.7" fill="#102848"/>
    <ellipse cx="13.6" cy="54" rx="0.8" ry="0.7" fill="#102848"/>
    <ellipse cx="10" cy="13.6" rx="0.8" ry="0.7" fill="#102848"/>
  </g>
</svg>
